<svg xmlns="http://www.w3.org/2000/svg" xmlns:xlink="http://www.w3.org/1999/xlink" width="500" zoomAndPan="magnify" viewBox="0 0 375 374.999991" height="500" preserveAspectRatio="xMidYMid meet" version="1.0"><defs><g/><clipPath id="e7d3a1af90"><path d="M 245.890625 205.683594 L 275.890625 205.683594 L 275.890625 235.683594 L 245.890625 235.683594 Z M 245.890625 205.683594 " clip-rule="nonzero"/></clipPath><clipPath id="4039a4fbb4"><path d="M 225.878906 213.910156 L 254.839844 213.910156 L 254.839844 229.785156 L 225.878906 229.785156 Z M 225.878906 213.910156 " clip-rule="nonzero"/></clipPath><clipPath id="7604b1f0aa"><path d="M 245.195312 228.949219 C 243.71875 229.453125 242.03125 229.785156 240.375 229.785156 C 238.722656 229.785156 237.128906 229.503906 235.664062 228.996094 C 235.632812 228.980469 235.601562 228.980469 235.570312 228.964844 C 230.0625 226.945312 226.003906 221.613281 225.925781 215.816406 L 225.925781 213.910156 L 254.839844 213.910156 L 254.839844 215.816406 C 254.761719 221.644531 250.765625 226.976562 245.195312 228.949219 Z M 245.195312 228.949219 " clip-rule="nonzero"/></clipPath><clipPath id="d45e75c4ad"><path d="M 163.558594 160.578125 L 223.558594 160.578125 L 223.558594 190.578125 L 163.558594 190.578125 Z M 163.558594 160.578125 " clip-rule="nonzero"/></clipPath><clipPath id="da0490528a"><path d="M 252.402344 144.558594 L 268.277344 144.558594 L 268.277344 173.519531 L 252.402344 173.519531 Z M 252.402344 144.558594 " clip-rule="nonzero"/></clipPath><clipPath id="2b0153adb6"><path d="M 267.441406 154.203125 C 267.945312 155.679688 268.277344 157.371094 268.277344 159.023438 C 268.277344 160.679688 267.996094 162.269531 267.488281 163.738281 C 267.472656 163.769531 267.472656 163.800781 267.457031 163.828125 C 265.4375 169.339844 260.105469 173.394531 254.308594 173.472656 L 252.402344 173.472656 L 252.402344 144.558594 L 254.308594 144.558594 C 260.136719 144.636719 265.46875 148.632812 267.441406 154.203125 Z M 267.441406 154.203125 " clip-rule="nonzero"/></clipPath></defs><g fill="#000000" fill-opacity="1"><g transform="translate(83.660218, 194.64441)"><g><path d="M 0.484375 0 L 26.6875 -43.203125 L 3.265625 -43.203125 L 3.265625 -72 L 73.0625 -72 L 46.84375 -28.796875 L 71.71875 -28.796875 L 71.71875 0 Z M 0.484375 0 "/></g></g></g><g fill="#000000" fill-opacity="1"><g transform="translate(157.196227, 194.64441)"><g><path d="M 0.953125 -19.578125 C 0.953125 -21.953125 1.320312 -24.304688 2.0625 -26.640625 C 2.800781 -28.972656 3.984375 -31.097656 5.609375 -33.015625 C 7.242188 -34.941406 9.4375 -36.476562 12.1875 -37.625 C 14.9375 -38.78125 18.332031 -39.359375 22.375 -39.359375 L 37.34375 -39.359375 C 37.34375 -40.960938 36.378906 -42.003906 34.453125 -42.484375 C 32.535156 -42.960938 29.660156 -43.203125 25.828125 -43.203125 L 6.90625 -43.203125 L 13.921875 -72 L 37.34375 -72 C 43.039062 -72 48.03125 -71.132812 52.3125 -69.40625 C 56.601562 -67.675781 59.945312 -64.957031 62.34375 -61.25 C 64.75 -57.539062 65.953125 -52.644531 65.953125 -46.5625 L 65.953125 0 L 21.21875 0 C 16.226562 0 12.242188 -0.957031 9.265625 -2.875 C 6.285156 -4.800781 4.15625 -7.265625 2.875 -10.265625 C 1.59375 -13.273438 0.953125 -16.378906 0.953125 -19.578125 Z M 30.625 -26.5 C 30.625 -25.601562 30.957031 -24.976562 31.625 -24.625 C 32.300781 -24.269531 33.054688 -24.09375 33.890625 -24.09375 L 37.34375 -24.09375 L 37.34375 -28.984375 L 33.890625 -28.984375 C 32.992188 -28.984375 32.222656 -28.789062 31.578125 -28.40625 C 30.941406 -28.03125 30.625 -27.394531 30.625 -26.5 Z M 30.625 -26.5 "/></g></g></g><g fill="#000000" fill-opacity="1"><g transform="translate(224.588236, 194.64441)"><g><path d="M 1.4375 -72 L 30.234375 -72 C 35.160156 -72 39.769531 -71.179688 44.0625 -69.546875 C 48.351562 -67.921875 52.113281 -65.554688 55.34375 -62.453125 C 58.570312 -59.347656 61.113281 -55.570312 62.96875 -51.125 C 64.832031 -46.675781 65.765625 -41.632812 65.765625 -36 C 65.765625 -28.570312 64.4375 -22.15625 61.78125 -16.75 C 59.125 -11.34375 55.171875 -7.179688 49.921875 -4.265625 C 44.671875 -1.359375 38.109375 0.09375 30.234375 0.09375 L 30.234375 24 L 1.4375 24 Z M 30.234375 -43.484375 L 30.234375 -27.84375 C 31.515625 -27.84375 32.601562 -28.257812 33.5 -29.09375 C 34.394531 -29.925781 35.082031 -30.929688 35.5625 -32.109375 C 36.039062 -33.296875 36.28125 -34.460938 36.28125 -35.609375 C 36.28125 -37.785156 35.6875 -39.640625 34.5 -41.171875 C 33.320312 -42.710938 31.898438 -43.484375 30.234375 -43.484375 Z M 30.234375 -43.484375 "/></g></g></g><g clip-path="url(#e7d3a1af90)"><path fill="#ffffff" d="M 245.890625 205.683594 L 275.890625 205.683594 L 275.890625 235.683594 L 245.890625 235.683594 Z M 245.890625 205.683594 " fill-opacity="1" fill-rule="nonzero"/></g><path stroke-linecap="butt" transform="matrix(0.75, 0, 0, 0.75, 151.588795, 242.429823)" fill="none" stroke-linejoin="miter" d="M 0.00139894 0.499819 L 185.631619 0.499819 " stroke="#000000" stroke-width="1" stroke-opacity="1" stroke-miterlimit="4"/><g clip-path="url(#4039a4fbb4)"><g clip-path="url(#7604b1f0aa)"><path fill="#000000" d="M 254.839844 229.785156 L 225.941406 229.785156 L 225.941406 213.910156 L 254.839844 213.910156 Z M 254.839844 229.785156 " fill-opacity="1" fill-rule="nonzero"/></g></g><g fill="#000000" fill-opacity="1"><g transform="translate(241.471528, 249.821485)"><g><path d="M 1.3125 -3.59375 C 1.707031 -3.59375 2.007812 -3.503906 2.21875 -3.328125 C 2.4375 -3.160156 2.546875 -2.898438 2.546875 -2.546875 C 2.546875 -2.328125 2.492188 -2.140625 2.390625 -1.984375 C 2.296875 -1.835938 2.15625 -1.722656 1.96875 -1.640625 C 1.78125 -1.554688 1.570312 -1.515625 1.34375 -1.515625 L 1.09375 -1.515625 L 1.09375 0 L 0.40625 0 L 0.40625 -3.59375 Z M 1.421875 -2.1875 C 1.722656 -2.1875 1.875 -2.304688 1.875 -2.546875 C 1.875 -2.671875 1.832031 -2.765625 1.75 -2.828125 C 1.664062 -2.890625 1.546875 -2.921875 1.390625 -2.921875 L 1.09375 -2.921875 L 1.09375 -2.1875 Z M 1.421875 -2.1875 "/></g></g></g><g fill="#000000" fill-opacity="1"><g transform="translate(244.171548, 249.821485)"><g><path d="M 2.109375 0.078125 C 1.765625 0.078125 1.445312 -0.00390625 1.15625 -0.171875 C 0.875 -0.335938 0.648438 -0.5625 0.484375 -0.84375 C 0.316406 -1.132812 0.234375 -1.453125 0.234375 -1.796875 C 0.234375 -2.140625 0.316406 -2.457031 0.484375 -2.75 C 0.648438 -3.039062 0.875 -3.269531 1.15625 -3.4375 C 1.445312 -3.601562 1.765625 -3.6875 2.109375 -3.6875 C 2.429688 -3.6875 2.734375 -3.601562 3.015625 -3.4375 C 3.304688 -3.269531 3.535156 -3.039062 3.703125 -2.75 C 3.878906 -2.457031 3.96875 -2.132812 3.96875 -1.78125 C 3.96875 -1.4375 3.882812 -1.117188 3.71875 -0.828125 C 3.550781 -0.546875 3.328125 -0.320312 3.046875 -0.15625 C 2.765625 0 2.453125 0.078125 2.109375 0.078125 Z M 2.109375 -0.5625 C 2.328125 -0.5625 2.523438 -0.613281 2.703125 -0.71875 C 2.878906 -0.832031 3.019531 -0.984375 3.125 -1.171875 C 3.226562 -1.359375 3.28125 -1.566406 3.28125 -1.796875 C 3.28125 -2.015625 3.226562 -2.21875 3.125 -2.40625 C 3.019531 -2.59375 2.878906 -2.742188 2.703125 -2.859375 C 2.523438 -2.972656 2.320312 -3.03125 2.09375 -3.03125 C 1.882812 -3.03125 1.6875 -2.972656 1.5 -2.859375 C 1.320312 -2.753906 1.179688 -2.609375 1.078125 -2.421875 C 0.972656 -2.234375 0.921875 -2.019531 0.921875 -1.78125 C 0.921875 -1.550781 0.972656 -1.34375 1.078125 -1.15625 C 1.191406 -0.96875 1.335938 -0.820312 1.515625 -0.71875 C 1.703125 -0.613281 1.898438 -0.5625 2.109375 -0.5625 Z M 2.109375 -0.5625 "/></g></g></g><g fill="#000000" fill-opacity="1"><g transform="translate(248.371584, 249.821485)"><g><path d="M 4.375 -3.59375 L 3.5625 0 L 2.90625 0 L 2.359375 -1.921875 L 2.25 -2.328125 C 2.207031 -2.171875 2.171875 -2.035156 2.140625 -1.921875 L 1.59375 0 L 0.953125 0 L 0.140625 -3.59375 L 0.8125 -3.59375 L 1.21875 -1.75 L 1.328125 -1.265625 L 1.453125 -1.75 L 1.96875 -3.59375 L 2.546875 -3.59375 L 3.0625 -1.765625 L 3.1875 -1.265625 L 3.296875 -1.78125 L 3.703125 -3.59375 Z M 4.375 -3.59375 "/></g></g></g><g fill="#000000" fill-opacity="1"><g transform="translate(252.871621, 249.821485)"><g><path d="M 0.40625 -3.59375 L 2.375 -3.59375 L 2.375 -2.921875 L 1.09375 -2.921875 L 1.09375 -2.265625 L 2.375 -2.265625 L 2.375 -1.625 L 1.09375 -1.625 L 1.09375 -0.671875 L 2.375 -0.671875 L 2.375 0 L 0.40625 0 Z M 0.40625 -3.59375 "/></g></g></g><g fill="#000000" fill-opacity="1"><g transform="translate(255.466641, 249.821485)"><g><path d="M 1.328125 -3.59375 C 1.710938 -3.59375 2.007812 -3.503906 2.21875 -3.328125 C 2.4375 -3.148438 2.546875 -2.890625 2.546875 -2.546875 C 2.546875 -2.316406 2.488281 -2.117188 2.375 -1.953125 C 2.257812 -1.796875 2.085938 -1.675781 1.859375 -1.59375 L 2.703125 0 L 1.96875 0 L 1.15625 -1.515625 L 1.09375 -1.515625 L 1.09375 0 L 0.40625 0 L 0.40625 -3.59375 Z M 1.40625 -2.1875 C 1.5625 -2.1875 1.675781 -2.21875 1.75 -2.28125 C 1.832031 -2.34375 1.875 -2.4375 1.875 -2.5625 C 1.875 -2.675781 1.832031 -2.765625 1.75 -2.828125 C 1.664062 -2.890625 1.546875 -2.921875 1.390625 -2.921875 L 1.09375 -2.921875 L 1.09375 -2.1875 Z M 1.40625 -2.1875 "/></g></g></g><g fill="#000000" fill-opacity="1"><g transform="translate(258.321665, 249.821485)"><g><path d="M 0.40625 -3.59375 L 2.375 -3.59375 L 2.375 -2.921875 L 1.09375 -2.921875 L 1.09375 -2.265625 L 2.375 -2.265625 L 2.375 -1.625 L 1.09375 -1.625 L 1.09375 -0.671875 L 2.375 -0.671875 L 2.375 0 L 0.40625 0 Z M 0.40625 -3.59375 "/></g></g></g><g fill="#000000" fill-opacity="1"><g transform="translate(260.916685, 249.821485)"><g><path d="M 1.28125 -3.59375 C 1.925781 -3.59375 2.414062 -3.441406 2.75 -3.140625 C 3.09375 -2.835938 3.265625 -2.390625 3.265625 -1.796875 C 3.265625 -1.171875 3.09375 -0.710938 2.75 -0.421875 C 2.414062 -0.140625 1.925781 0 1.28125 0 L 0.40625 0 L 0.40625 -3.59375 Z M 1.40625 -0.671875 C 1.78125 -0.671875 2.066406 -0.765625 2.265625 -0.953125 C 2.460938 -1.140625 2.5625 -1.425781 2.5625 -1.8125 C 2.5625 -2.050781 2.507812 -2.253906 2.40625 -2.421875 C 2.3125 -2.585938 2.171875 -2.710938 1.984375 -2.796875 C 1.796875 -2.878906 1.578125 -2.921875 1.328125 -2.921875 L 1.09375 -2.921875 L 1.09375 -0.671875 Z M 1.40625 -0.671875 "/></g></g></g><g fill="#000000" fill-opacity="1"><g transform="translate(264.40671, 249.821485)"><g/></g></g><g fill="#000000" fill-opacity="1"><g transform="translate(265.806725, 249.821485)"><g><path d="M 1.109375 -3.59375 C 1.503906 -3.59375 1.816406 -3.515625 2.046875 -3.359375 C 2.285156 -3.210938 2.40625 -2.984375 2.40625 -2.671875 C 2.40625 -2.523438 2.375 -2.394531 2.3125 -2.28125 C 2.25 -2.175781 2.15625 -2.070312 2.03125 -1.96875 C 2.238281 -1.875 2.394531 -1.75 2.5 -1.59375 C 2.601562 -1.445312 2.65625 -1.265625 2.65625 -1.046875 C 2.65625 -0.835938 2.601562 -0.65625 2.5 -0.5 C 2.40625 -0.34375 2.265625 -0.21875 2.078125 -0.125 C 1.898438 -0.0390625 1.703125 0 1.484375 0 L 0.40625 0 L 0.40625 -3.59375 Z M 1.25 -2.1875 C 1.40625 -2.1875 1.523438 -2.21875 1.609375 -2.28125 C 1.691406 -2.351562 1.734375 -2.453125 1.734375 -2.578125 C 1.734375 -2.691406 1.691406 -2.78125 1.609375 -2.84375 C 1.535156 -2.90625 1.421875 -2.9375 1.265625 -2.9375 L 1.09375 -2.9375 L 1.09375 -2.1875 Z M 1.328125 -0.65625 C 1.546875 -0.65625 1.707031 -0.6875 1.8125 -0.75 C 1.925781 -0.8125 1.984375 -0.921875 1.984375 -1.078125 C 1.984375 -1.234375 1.921875 -1.351562 1.796875 -1.4375 C 1.679688 -1.53125 1.503906 -1.578125 1.265625 -1.578125 L 1.09375 -1.578125 L 1.09375 -0.65625 Z M 1.328125 -0.65625 "/></g></g></g><g fill="#000000" fill-opacity="1"><g transform="translate(268.706749, 249.821485)"><g><path d="M 1.109375 -1.5625 L 0.046875 -3.59375 L 0.78125 -3.59375 L 1.453125 -2.234375 L 2.109375 -3.59375 L 2.84375 -3.59375 L 1.796875 -1.5625 L 1.796875 0 L 1.109375 0 Z M 1.109375 -1.5625 "/></g></g></g><g fill="#000000" fill-opacity="1"><g transform="translate(271.60177, 249.821485)"><g/></g></g><g fill="#000000" fill-opacity="1"><g transform="translate(273.001784, 249.821485)"><g><path d="M 0.171875 -2.6875 C 0.265625 -3.019531 0.414062 -3.269531 0.625 -3.4375 C 0.84375 -3.601562 1.113281 -3.6875 1.4375 -3.6875 C 1.65625 -3.6875 1.847656 -3.632812 2.015625 -3.53125 C 2.191406 -3.425781 2.328125 -3.285156 2.421875 -3.109375 C 2.515625 -2.941406 2.5625 -2.757812 2.5625 -2.5625 C 2.5625 -2.394531 2.53125 -2.234375 2.46875 -2.078125 C 2.40625 -1.929688 2.3125 -1.773438 2.1875 -1.609375 C 2.0625 -1.453125 1.894531 -1.269531 1.6875 -1.0625 L 1.296875 -0.640625 L 2.59375 -0.640625 L 2.59375 0 L 0.109375 0 L 0.109375 -0.328125 L 1.21875 -1.453125 C 1.445312 -1.691406 1.613281 -1.894531 1.71875 -2.0625 C 1.832031 -2.226562 1.890625 -2.394531 1.890625 -2.5625 C 1.890625 -2.65625 1.867188 -2.738281 1.828125 -2.8125 C 1.785156 -2.882812 1.726562 -2.941406 1.65625 -2.984375 C 1.582031 -3.023438 1.5 -3.046875 1.40625 -3.046875 C 1.101562 -3.046875 0.90625 -2.847656 0.8125 -2.453125 Z M 0.171875 -2.6875 "/></g></g></g><g fill="#000000" fill-opacity="1"><g transform="translate(275.801806, 249.821485)"><g><path d="M 2.140625 -1.9375 C 2.296875 -1.84375 2.414062 -1.710938 2.5 -1.546875 C 2.59375 -1.378906 2.640625 -1.203125 2.640625 -1.015625 C 2.640625 -0.804688 2.59375 -0.617188 2.5 -0.453125 C 2.40625 -0.285156 2.265625 -0.148438 2.078125 -0.046875 C 1.898438 0.046875 1.675781 0.09375 1.40625 0.09375 C 1.15625 0.09375 0.929688 0.0507812 0.734375 -0.03125 C 0.546875 -0.125 0.398438 -0.253906 0.296875 -0.421875 C 0.203125 -0.585938 0.15625 -0.785156 0.15625 -1.015625 C 0.15625 -1.210938 0.191406 -1.382812 0.265625 -1.53125 C 0.347656 -1.675781 0.476562 -1.8125 0.65625 -1.9375 C 0.539062 -2.050781 0.457031 -2.164062 0.40625 -2.28125 C 0.351562 -2.40625 0.328125 -2.539062 0.328125 -2.6875 C 0.328125 -2.875 0.367188 -3.039062 0.453125 -3.1875 C 0.546875 -3.34375 0.671875 -3.460938 0.828125 -3.546875 C 0.992188 -3.640625 1.1875 -3.6875 1.40625 -3.6875 C 1.613281 -3.6875 1.800781 -3.640625 1.96875 -3.546875 C 2.132812 -3.453125 2.257812 -3.328125 2.34375 -3.171875 C 2.4375 -3.023438 2.484375 -2.859375 2.484375 -2.671875 C 2.484375 -2.535156 2.453125 -2.410156 2.390625 -2.296875 C 2.335938 -2.191406 2.253906 -2.070312 2.140625 -1.9375 Z M 1.375 -3.03125 C 1.257812 -3.03125 1.164062 -2.988281 1.09375 -2.90625 C 1.03125 -2.832031 1 -2.738281 1 -2.625 C 1 -2.550781 1.015625 -2.484375 1.046875 -2.421875 C 1.078125 -2.359375 1.125 -2.304688 1.1875 -2.265625 C 1.25 -2.234375 1.316406 -2.21875 1.390625 -2.21875 C 1.515625 -2.21875 1.613281 -2.253906 1.6875 -2.328125 C 1.757812 -2.410156 1.796875 -2.507812 1.796875 -2.625 C 1.796875 -2.75 1.753906 -2.847656 1.671875 -2.921875 C 1.597656 -2.992188 1.5 -3.03125 1.375 -3.03125 Z M 1.40625 -0.5625 C 1.570312 -0.5625 1.707031 -0.601562 1.8125 -0.6875 C 1.914062 -0.78125 1.96875 -0.90625 1.96875 -1.0625 C 1.96875 -1.164062 1.941406 -1.253906 1.890625 -1.328125 C 1.835938 -1.410156 1.769531 -1.472656 1.6875 -1.515625 C 1.601562 -1.566406 1.507812 -1.59375 1.40625 -1.59375 C 1.300781 -1.59375 1.203125 -1.566406 1.109375 -1.515625 C 1.023438 -1.472656 0.957031 -1.410156 0.90625 -1.328125 C 0.851562 -1.253906 0.828125 -1.171875 0.828125 -1.078125 C 0.828125 -0.984375 0.847656 -0.894531 0.890625 -0.8125 C 0.941406 -0.738281 1.007812 -0.675781 1.09375 -0.625 C 1.175781 -0.582031 1.28125 -0.5625 1.40625 -0.5625 Z M 1.40625 -0.5625 "/></g></g></g><g fill="#000000" fill-opacity="1"><g transform="translate(278.601829, 249.821485)"><g><path d="M 2.140625 0.09375 C 1.765625 0.09375 1.429688 0.015625 1.140625 -0.140625 C 0.859375 -0.304688 0.632812 -0.53125 0.46875 -0.8125 C 0.3125 -1.101562 0.234375 -1.429688 0.234375 -1.796875 C 0.234375 -2.160156 0.316406 -2.484375 0.484375 -2.765625 C 0.660156 -3.054688 0.894531 -3.28125 1.1875 -3.4375 C 1.476562 -3.601562 1.796875 -3.6875 2.140625 -3.6875 C 2.429688 -3.6875 2.710938 -3.625 2.984375 -3.5 C 3.265625 -3.375 3.5 -3.191406 3.6875 -2.953125 L 3.203125 -2.5 C 3.046875 -2.675781 2.878906 -2.804688 2.703125 -2.890625 C 2.523438 -2.984375 2.332031 -3.03125 2.125 -3.03125 C 1.90625 -3.03125 1.703125 -2.972656 1.515625 -2.859375 C 1.328125 -2.753906 1.175781 -2.609375 1.0625 -2.421875 C 0.957031 -2.234375 0.90625 -2.023438 0.90625 -1.796875 C 0.90625 -1.554688 0.957031 -1.34375 1.0625 -1.15625 C 1.164062 -0.96875 1.3125 -0.820312 1.5 -0.71875 C 1.695312 -0.613281 1.910156 -0.5625 2.140625 -0.5625 C 2.359375 -0.5625 2.546875 -0.601562 2.703125 -0.6875 C 2.867188 -0.769531 3.046875 -0.898438 3.234375 -1.078125 L 3.6875 -0.59375 C 3.519531 -0.4375 3.359375 -0.304688 3.203125 -0.203125 C 3.054688 -0.109375 2.894531 -0.0351562 2.71875 0.015625 C 2.550781 0.0664062 2.359375 0.09375 2.140625 0.09375 Z M 2.140625 0.09375 "/></g></g></g><g fill="#000000" fill-opacity="1"><g transform="translate(282.501858, 249.821485)"><g><path d="M 1.09375 -3.59375 L 1.09375 -0.65625 L 2.09375 -0.65625 L 2.09375 0 L 0.40625 0 L 0.40625 -3.59375 Z M 1.09375 -3.59375 "/></g></g></g><g fill="#000000" fill-opacity="1"><g transform="translate(284.701878, 249.821485)"><g><path d="M 1.609375 0.078125 C 1.335938 0.078125 1.109375 0.0234375 0.921875 -0.078125 C 0.742188 -0.179688 0.609375 -0.332031 0.515625 -0.53125 C 0.429688 -0.726562 0.390625 -0.960938 0.390625 -1.234375 L 0.390625 -3.59375 L 1.0625 -3.59375 L 1.0625 -1.15625 C 1.0625 -0.96875 1.109375 -0.820312 1.203125 -0.71875 C 1.296875 -0.613281 1.425781 -0.5625 1.59375 -0.5625 C 1.726562 -0.5625 1.835938 -0.585938 1.921875 -0.640625 C 2.003906 -0.703125 2.054688 -0.78125 2.078125 -0.875 C 2.109375 -0.976562 2.125 -1.101562 2.125 -1.25 L 2.125 -3.59375 L 2.8125 -3.59375 L 2.8125 -1.1875 C 2.8125 -0.925781 2.765625 -0.695312 2.671875 -0.5 C 2.578125 -0.3125 2.4375 -0.164062 2.25 -0.0625 C 2.070312 0.03125 1.859375 0.078125 1.609375 0.078125 Z M 1.609375 0.078125 "/></g></g></g><g fill="#000000" fill-opacity="1"><g transform="translate(287.901904, 249.821485)"><g><path d="M 1.109375 -3.59375 C 1.503906 -3.59375 1.816406 -3.515625 2.046875 -3.359375 C 2.285156 -3.210938 2.40625 -2.984375 2.40625 -2.671875 C 2.40625 -2.523438 2.375 -2.394531 2.3125 -2.28125 C 2.25 -2.175781 2.15625 -2.070312 2.03125 -1.96875 C 2.238281 -1.875 2.394531 -1.75 2.5 -1.59375 C 2.601562 -1.445312 2.65625 -1.265625 2.65625 -1.046875 C 2.65625 -0.835938 2.601562 -0.65625 2.5 -0.5 C 2.40625 -0.34375 2.265625 -0.21875 2.078125 -0.125 C 1.898438 -0.0390625 1.703125 0 1.484375 0 L 0.40625 0 L 0.40625 -3.59375 Z M 1.25 -2.1875 C 1.40625 -2.1875 1.523438 -2.21875 1.609375 -2.28125 C 1.691406 -2.351562 1.734375 -2.453125 1.734375 -2.578125 C 1.734375 -2.691406 1.691406 -2.78125 1.609375 -2.84375 C 1.535156 -2.90625 1.421875 -2.9375 1.265625 -2.9375 L 1.09375 -2.9375 L 1.09375 -2.1875 Z M 1.328125 -0.65625 C 1.546875 -0.65625 1.707031 -0.6875 1.8125 -0.75 C 1.925781 -0.8125 1.984375 -0.921875 1.984375 -1.078125 C 1.984375 -1.234375 1.921875 -1.351562 1.796875 -1.4375 C 1.679688 -1.53125 1.503906 -1.578125 1.265625 -1.578125 L 1.09375 -1.578125 L 1.09375 -0.65625 Z M 1.328125 -0.65625 "/></g></g></g><g fill="#000000" fill-opacity="1"><g transform="translate(83.951542, 219.928726)"><g><path d="M 0.859375 0 L 0.8125 -20.96875 L 10.90625 -13.328125 L 21 -20.96875 L 21.0625 0 Z M 0.859375 0 "/></g></g></g><g fill="#000000" fill-opacity="1"><g transform="translate(105.803325, 219.928726)"><g><path d="M 15.515625 -10.09375 L 15.515625 0 L 5.421875 0 L 5.421875 -10.09375 L -0.234375 -20.1875 L 21.171875 -20.1875 Z M 15.515625 -10.09375 "/></g></g></g><g fill="#000000" fill-opacity="1"><g transform="translate(126.732599, 219.928726)"><g/></g></g><g fill="#000000" fill-opacity="1"><g transform="translate(138.29271, 219.928726)"><g><path d="M 20.859375 -8.359375 C 20.859375 -6.859375 20.570312 -5.546875 20 -4.421875 C 19.4375 -3.296875 18.671875 -2.351562 17.703125 -1.59375 C 16.742188 -0.84375 15.664062 -0.28125 14.46875 0.09375 C 13.28125 0.46875 12.050781 0.65625 10.78125 0.65625 C 9.519531 0.65625 8.289062 0.46875 7.09375 0.09375 C 5.90625 -0.28125 4.828125 -0.84375 3.859375 -1.59375 C 2.898438 -2.351562 2.132812 -3.296875 1.5625 -4.421875 C 1 -5.546875 0.71875 -6.859375 0.71875 -8.359375 L 0.71875 -12.609375 L 10.265625 -12.609375 L 10.265625 -9 L 11.140625 -9 L 11.140625 -20.21875 L 20.859375 -20.21875 Z M 20.859375 -8.359375 "/></g></g></g><g fill="#000000" fill-opacity="1"><g transform="translate(159.971515, 219.928726)"><g><path d="M 11.046875 -20.875 C 12.523438 -20.875 13.910156 -20.59375 15.203125 -20.03125 C 16.503906 -19.476562 17.648438 -18.707031 18.640625 -17.71875 C 19.640625 -16.726562 20.414062 -15.582031 20.96875 -14.28125 C 21.53125 -12.988281 21.8125 -11.601562 21.8125 -10.125 C 21.8125 -8.644531 21.53125 -7.253906 20.96875 -5.953125 C 20.414062 -4.660156 19.640625 -3.515625 18.640625 -2.515625 C 17.648438 -1.523438 16.503906 -0.75 15.203125 -0.1875 C 13.910156 0.363281 12.523438 0.640625 11.046875 0.640625 C 9.566406 0.640625 8.175781 0.363281 6.875 -0.1875 C 5.582031 -0.75 4.441406 -1.523438 3.453125 -2.515625 C 2.460938 -3.515625 1.6875 -4.660156 1.125 -5.953125 C 0.5625 -7.253906 0.28125 -8.644531 0.28125 -10.125 C 0.28125 -11.601562 0.5625 -12.988281 1.125 -14.28125 C 1.6875 -15.582031 2.460938 -16.726562 3.453125 -17.71875 C 4.441406 -18.707031 5.582031 -19.476562 6.875 -20.03125 C 8.175781 -20.59375 9.566406 -20.875 11.046875 -20.875 Z M 11.046875 -20.875 "/></g></g></g><g fill="#000000" fill-opacity="1"><g transform="translate(182.198057, 219.928726)"><g><path d="M 0.84375 -20.1875 L 11.328125 -20.1875 C 12.429688 -20.1875 13.425781 -19.984375 14.3125 -19.578125 C 15.207031 -19.179688 15.953125 -18.640625 16.546875 -17.953125 C 17.148438 -17.273438 17.578125 -16.523438 17.828125 -15.703125 C 18.078125 -14.890625 18.113281 -14.050781 17.9375 -13.1875 C 17.769531 -12.332031 17.347656 -11.539062 16.671875 -10.8125 C 17.597656 -10.144531 18.222656 -9.34375 18.546875 -8.40625 C 18.867188 -7.476562 18.929688 -6.519531 18.734375 -5.53125 C 18.535156 -4.550781 18.097656 -3.644531 17.421875 -2.8125 C 16.742188 -1.976562 15.863281 -1.300781 14.78125 -0.78125 C 13.695312 -0.257812 12.441406 0 11.015625 0 L 0.84375 0 Z M 0.84375 -20.1875 "/></g></g></g><g clip-path="url(#d45e75c4ad)"><path fill="#000000" d="M 177.570312 190.578125 L 209.417969 190.578125 C 217.183594 190.578125 223.554688 184.207031 223.554688 176.441406 L 223.554688 174.691406 C 223.554688 166.890625 217.183594 160.519531 209.417969 160.519531 L 177.605469 160.519531 C 169.839844 160.519531 163.472656 166.890625 163.472656 174.652344 L 163.472656 176.40625 C 163.4375 184.207031 169.804688 190.578125 177.570312 190.578125 Z M 177.570312 190.578125 " fill-opacity="1" fill-rule="nonzero"/></g><path fill="#f1f2f2" d="M 166.941406 175.546875 C 166.941406 174.765625 167.019531 173.988281 167.171875 173.21875 C 167.324219 172.449219 167.550781 171.699219 167.851562 170.976562 C 168.152344 170.25 168.519531 169.5625 168.957031 168.910156 C 169.394531 168.257812 169.886719 167.652344 170.441406 167.097656 C 171 166.542969 171.601562 166.046875 172.253906 165.609375 C 172.90625 165.175781 173.597656 164.808594 174.320312 164.507812 C 175.046875 164.207031 175.792969 163.980469 176.5625 163.828125 C 177.332031 163.671875 178.109375 163.597656 178.894531 163.597656 C 179.679688 163.597656 180.457031 163.671875 181.226562 163.828125 C 181.996094 163.980469 182.742188 164.207031 183.46875 164.507812 C 184.195312 164.808594 184.882812 165.175781 185.535156 165.609375 C 186.1875 166.046875 186.789062 166.542969 187.347656 167.097656 C 187.902344 167.652344 188.394531 168.257812 188.832031 168.910156 C 189.269531 169.5625 189.636719 170.25 189.9375 170.976562 C 190.238281 171.699219 190.464844 172.449219 190.617188 173.21875 C 190.769531 173.988281 190.847656 174.765625 190.847656 175.546875 C 190.847656 176.332031 190.769531 177.109375 190.617188 177.878906 C 190.464844 178.648438 190.238281 179.398438 189.9375 180.121094 C 189.636719 180.847656 189.269531 181.535156 188.832031 182.1875 C 188.394531 182.839844 187.902344 183.445312 187.347656 184 C 186.789062 184.554688 186.1875 185.050781 185.535156 185.484375 C 184.882812 185.921875 184.195312 186.289062 183.46875 186.589844 C 182.742188 186.890625 181.996094 187.117188 181.226562 187.269531 C 180.457031 187.425781 179.679688 187.5 178.894531 187.5 C 178.109375 187.5 177.332031 187.425781 176.5625 187.269531 C 175.792969 187.117188 175.046875 186.890625 174.320312 186.589844 C 173.597656 186.289062 172.90625 185.921875 172.253906 185.484375 C 171.601562 185.050781 171 184.554688 170.441406 184 C 169.886719 183.445312 169.394531 182.839844 168.957031 182.1875 C 168.519531 181.535156 168.152344 180.847656 167.851562 180.121094 C 167.550781 179.398438 167.324219 178.648438 167.171875 177.878906 C 167.019531 177.109375 166.941406 176.332031 166.941406 175.546875 Z M 166.941406 175.546875 " fill-opacity="1" fill-rule="nonzero"/><g clip-path="url(#da0490528a)"><g clip-path="url(#2b0153adb6)"><path fill="#f1f2f2" d="M 268.277344 144.558594 L 268.277344 173.457031 L 252.402344 173.457031 L 252.402344 144.558594 Z M 268.277344 144.558594 " fill-opacity="1" fill-rule="nonzero"/></g></g></svg>